<svg width="105" height="90" fill="none" xmlns="http://www.w3.org/2000/svg"><path fill-rule="evenodd" clip-rule="evenodd" d="M36.197 37.006c4.691-.175 8.334 3.62 12.4 5.997 4.668 2.728 9.926 4.488 13.095 8.906 4.038 5.63 8.553 12.321 6.992 19.1-1.574 6.835-8.653 10.686-14.656 14.181-5.462 3.181-11.551 5.226-17.831 4.738-5.972-.463-10.715-4.416-15.953-7.36C14.098 79.114 6.238 77.56 2.97 71.252c-3.425-6.613-4.498-16.015.09-21.86 4.692-5.978 14.308-2.848 21.378-5.49 4.355-1.629 7.12-6.724 11.758-6.896Z" fill="#CAD4DF"/><path fill-rule="evenodd" clip-rule="evenodd" d="M74.226 40.79c5.92.211 11.279-5.62 16.93-3.807 6.232 1.998 12.492 7.071 13.679 13.623 1.182 6.53-4.24 12.223-8.018 17.631-2.775 3.973-6.528 6.829-10.715 9.185-3.7 2.082-7.76 2.552-11.876 3.527-5.656 1.339-11.5 5.885-16.694 3.237-5.15-2.624-6.345-9.69-7.32-15.477-.873-5.174 1.176-10.05 2.147-15.206 1.152-6.117-1.247-14.669 4.059-17.753 5.486-3.19 11.497 4.817 17.808 5.04Z" fill="#F8F8F8"/><g clip-path="url(#a)"><mask id="b" style="mask-type:luminance" maskUnits="userSpaceOnUse" x="22" y="0" width="69" height="69"><path d="M22.045.045H90.91V68.91H22.045V.045Z" fill="#fff"/></mask><g mask="url(#b)"><path d="M34.957 8.94a2.152 2.152 0 1 0-4.304 0 2.152 2.152 0 0 0 4.304 0ZM43.565 8.94a2.152 2.152 0 1 0-4.304 0 2.152 2.152 0 0 0 4.304 0ZM52.173 8.94a2.152 2.152 0 1 0-4.304 0 2.152 2.152 0 0 0 4.304 0ZM39.53 31.64a2.421 2.421 0 1 0-4.842 0 2.421 2.421 0 0 0 4.842 0Z" fill="#24354B"/><path d="M89.565 16.454H23.39M84.185 67.565H28.77a5.38 5.38 0 0 1-5.38-5.38V6.77a5.38 5.38 0 0 1 5.38-5.38h55.415a5.38 5.38 0 0 1 5.38 5.38v55.415a5.38 5.38 0 0 1-5.38 5.38Z" stroke="#24354B" stroke-width="2.5" stroke-miterlimit="10" stroke-linecap="round" stroke-linejoin="round"/><path d="M43.565 31.64a6.456 6.456 0 1 0-12.912 0 6.456 6.456 0 0 0 12.912 0ZM50.021 28.008h32.28M50.021 35.271h13.645M43.565 53.828a6.456 6.456 0 1 0-12.912 0 6.456 6.456 0 0 0 12.912 0ZM50.021 50.196h32.28M50.021 57.46H68.59M74.709 31.684l-11.808-3.66a.767.767 0 0 0-.96.96l3.661 11.807a.767.767 0 0 0 1.275.315l1.894-1.894 4.392 4.393c.3.3.785.3 1.085 0l3.275-3.275c.3-.3.3-.785 0-1.085l-4.393-4.392 1.894-1.894a.767.767 0 0 0-.315-1.275Z" stroke="#24354B" stroke-width="2.5" stroke-miterlimit="10" stroke-linecap="round" stroke-linejoin="round"/></g></g><defs><clipPath id="a"><path fill="#fff" transform="translate(22)" d="M0 0h69v69H0z"/></clipPath></defs></svg>