<svg width="90" height="89" fill="none" xmlns="http://www.w3.org/2000/svg"><path fill-rule="evenodd" clip-rule="evenodd" d="M34.226 39.892c5.35 1.452 9.624 5.16 13.258 9.345 2.987 3.44 3.054 8.29 5.43 12.176 3.54 5.786 12.794 9.266 11.784 15.973-.96 6.37-9.592 8.467-15.748 10.364-4.819 1.485-9.783.03-14.724-.975-3.925-.8-7.04-3.282-10.928-4.249-7.65-1.902-19.056 2.876-22.701-4.114-3.372-6.466 8.538-11.417 11.029-18.27 2.342-6.446-2.278-15.293 2.83-19.869 5.032-4.509 13.25-2.15 19.77-.38Z" fill="#CAD4DF"/><path fill-rule="evenodd" clip-rule="evenodd" d="M58.64 31.01c6.355.376 6.95 10.506 12.24 14.044 5.687 3.803 16.837.209 18.85 6.746 2.025 6.583-7.864 10.692-11.728 16.393-2.477 3.653-3.775 7.775-6.82 10.971-3.687 3.87-7.221 9.87-12.542 9.351-5.418-.528-5.996-9.234-10.881-11.636-6.791-3.339-16.867 1.428-21.707-4.389-4.588-5.513-3.374-15.01.598-20.983 3.837-5.77 12.816-4.226 18.651-7.965 5.266-3.374 7.096-12.9 13.34-12.532Z" fill="#F8F8F8"/><g clip-path="url(#a)" stroke="#24354B" stroke-width="2.5" stroke-miterlimit="10" stroke-linecap="round" stroke-linejoin="round"><path d="m50.665 29.426 5.763-16.884a4.927 4.927 0 0 0-3.073-6.254L38.67 1.276a4.927 4.927 0 0 0-6.254 3.073l-8.559 25.077"/><path d="m45.304 29.426 4.825-14.136a4.488 4.488 0 0 1-2.798-5.698l-5.912-2.017a4.489 4.489 0 0 1-5.698 2.798l-6.502 19.053M63.796 29.426h.271a5.818 5.818 0 0 1 5.818 5.818v8.39M13.055 46.88v15.29a5.818 5.818 0 0 0 5.819 5.82h36.402M13.055 22.322v19.823M69.885 53.782v8.389a5.818 5.818 0 0 1-5.818 5.818h-4.055"/><path d="M29.4 13.189h-8.226a8.12 8.12 0 1 0 0 16.237h42.622V19.007a5.818 5.818 0 0 0-5.818-5.818h-1.771M70.877 43.633a3.068 3.068 0 0 1 3.068 3.068v4.013a3.068 3.068 0 0 1-3.068 3.068h-5.05a5.074 5.074 0 0 1 0-10.149h5.05ZM13.055 37.544h56.83M13.055 59.87h56.83M29.447 46.456v1.624M46.347 46.456v1.624M35.668 48.031a2.953 2.953 0 0 0 4.456 0"/></g><defs><clipPath id="a"><path fill="#fff" transform="translate(9)" d="M0 0h69v69H0z"/></clipPath></defs></svg>