<svg width="99" height="91" fill="none" xmlns="http://www.w3.org/2000/svg"><path fill-rule="evenodd" clip-rule="evenodd" d="M26.118 37.446c6.26.194 9.134 8.789 15.24 10.182 7.089 1.618 15.77-6.706 21.2-1.867 5.034 4.486-.681 12.976-1.19 19.7-.448 5.936 2.097 12.689-1.609 17.347-3.686 4.633-10.7 4.052-16.47 5.38-5.087 1.17-10.509 4.267-15.159 1.895-4.603-2.348-3.393-9.805-7.199-13.3-5.436-4.994-16.04-3.765-18.823-10.602-2.658-6.53 2.02-14.158 6.54-19.568 4.322-5.173 10.732-9.376 17.47-9.167Z" fill="#CAD4DF"/><path fill-rule="evenodd" clip-rule="evenodd" d="M77.511 35.759c4.96 2.388 3.711 10 6.888 14.468 3.904 5.49 14.087 7.625 13.583 14.325-.494 6.565-9.789 8.273-15.532 11.577-4.093 2.354-8.257 4.373-12.967 4.819-4.386.414-8.306-1.757-12.664-2.396-7.03-1.03-15.775 2.644-20.645-2.487-4.67-4.922-3.624-13.776-.48-19.772 2.903-5.54 10.517-6.006 15.784-9.426 3.66-2.377 6.297-5.808 10.316-7.523 5.062-2.16 10.76-5.972 15.717-3.585Z" fill="#F8F8F8"/><g clip-path="url(#a)"><path d="M21.849 41.86V33.77M28.66 41.86V30.057M35.44 41.86V30.851" stroke="#24354B" stroke-width="2.5" stroke-miterlimit="10" stroke-linecap="round" stroke-linejoin="round"/><mask id="b" style="mask-type:luminance" maskUnits="userSpaceOnUse" x="13" y="0" width="70" height="69"><path d="M13.5 0h69v69h-69V0Z" fill="#fff"/></mask><g mask="url(#b)" stroke="#24354B" stroke-width="2.5" stroke-miterlimit="10" stroke-linecap="round" stroke-linejoin="round"><path d="M40.75 67.652H18.921v-7.56H40.75v7.56ZM55.25 67.652h21.83v-7.56H55.25v7.56Z"/></g><path d="M67.34 35.746v-5.689M74.152 41.86V33.77M60.56 41.86V30.851" stroke="#24354B" stroke-width="2.5" stroke-miterlimit="10" stroke-linecap="round" stroke-linejoin="round"/><mask id="c" style="mask-type:luminance" maskUnits="userSpaceOnUse" x="13" y="0" width="70" height="69"><path d="M13.5 0h69v69h-69V0Z" fill="#fff"/></mask><g mask="url(#c)"><path d="M42.095 41.525V30.85a3.328 3.328 0 1 0-6.655 0v-4.145a3.39 3.39 0 1 0-6.78 0l-.016 3.351a3.398 3.398 0 1 0-6.795 0v3.712c0-1.838-1.522-3.328-3.398-3.328-1.877 0-3.398 1.49-3.398 3.328V46.61c0 3.752 1.2 7.405 3.426 10.425l2.252 3.057h18.158l4.152-4.803C46.262 50.925 48 48.882 48 43.46v-6.005c-2.85-1.086-5.905 1.02-5.905 4.07ZM53.905 41.525V30.85a3.328 3.328 0 1 1 6.655 0v-4.145a3.39 3.39 0 0 1 6.78 0l.016 3.351a3.398 3.398 0 0 1 6.795 0v3.712c0-1.838 1.522-3.328 3.398-3.328 1.877 0 3.398 1.49 3.398 3.328V46.61c0 3.752-1.2 7.405-3.426 10.425l-2.252 3.057H57.111l-4.152-4.803C49.738 50.925 48 48.882 48 43.46v-6.005c2.85-1.086 5.905 1.02 5.905 4.07Z" stroke="#24354B" stroke-width="2.5" stroke-miterlimit="10" stroke-linecap="round" stroke-linejoin="round"/><path d="M77.549 14.264V30.44c-1.877 0-3.398 1.49-3.398 3.328v-3.711c0-.939-.38-1.789-.995-2.403a3.398 3.398 0 0 0-5.8 2.402l-.017-3.35a3.39 3.39 0 1 0-6.779 0v4.145c0-.92-.371-1.751-.974-2.353a3.327 3.327 0 0 0-5.681 2.353v10.672c0-3.05-3.055-5.155-5.905-4.07-2.85-1.085-5.906 1.02-5.906 4.07V30.852a3.327 3.327 0 1 0-6.654 0v-4.146a3.39 3.39 0 0 0-6.78 0l-.015 3.352a3.4 3.4 0 0 0-5.802-2.403 3.384 3.384 0 0 0-.995 2.403v3.711c0-1.77-1.408-3.215-3.187-3.322l-.21-.39V14.265c0-2.053 1.88-3.716 4.199-3.716h50.7c2.32 0 4.199 1.663 4.199 3.716ZM35.44 10.548V7.952a2.807 2.807 0 0 1 2.807-2.807h23.42a2.807 2.807 0 0 0 2.807-2.807v-.99" stroke="#24354B" stroke-width="2.5" stroke-miterlimit="10" stroke-linecap="round" stroke-linejoin="round"/><path d="M26.488 18.643v-2.786h6.317v2.786M38.422 18.643v-2.786h6.317v2.786M50.357 18.643v-2.786h6.317v2.786M44.604 25.971v-2.786h6.317v2.786M62.291 18.643v-2.786h6.317v2.786" stroke="#24354B" stroke-width="2.5" stroke-miterlimit="10" stroke-linecap="round" stroke-linejoin="round"/><path d="M50.371 23.898c.26 0 .261-.404 0-.404-.26 0-.26.404 0 .404Z" fill="#24354B"/></g></g><defs><clipPath id="a"><path fill="#fff" transform="translate(13.5)" d="M0 0h69v69H0z"/></clipPath></defs></svg>