<svg width="94" height="89" fill="none" xmlns="http://www.w3.org/2000/svg"><path fill-rule="evenodd" clip-rule="evenodd" d="M35.932 33.687c6.465-2.013 13.986-3.29 19.816.154 5.96 3.521 9.206 10.682 10.135 17.542.85 6.27-3.524 11.668-5.358 17.722-1.89 6.233-.159 14.567-5.539 18.236-5.394 3.68-12.78.349-19.054-1.464-4.793-1.384-7.834-5.728-12.444-7.635-6.939-2.872-16.917.018-21.076-6.236-3.973-5.976-1.177-15.022 3.12-20.769 3.958-5.292 12.173-4.029 17.895-7.333 4.779-2.759 7.237-8.577 12.505-10.217Z" fill="#CAD4DF"/><path fill-rule="evenodd" clip-rule="evenodd" d="M60.604 29.85c5.954-1.868 12.808-.545 18.037 2.86 5.36 3.49 7.962 9.669 10.327 15.611 2.524 6.343 6.195 13.28 3.699 19.634-2.476 6.302-9.529 9.704-16.003 11.686-5.282 1.618-10.535-1.85-16.06-1.87-5.492-.019-11.482 4.913-15.978 1.758-4.483-3.146-1.59-10.547-3.73-15.589-2.486-5.861-11.912-9.99-9.65-15.942 2.309-6.072 12.492-2.654 18.018-6.07 4.815-2.976 5.939-10.383 11.34-12.078Z" fill="#F8F8F8"/><g clip-path="url(#a)"><mask id="b" style="mask-type:luminance" maskUnits="userSpaceOnUse" x="14" y="0" width="70" height="69"><path d="M14.545 0H83.41v68.865H14.545V0Z" fill="#fff"/></mask><g mask="url(#b)" stroke="#24354B" stroke-width="2.5" stroke-miterlimit="10" stroke-linecap="round" stroke-linejoin="round"><path d="M50.554 15.38 18.47 21.955c-3.254.668-3.996 4.982-1.152 6.698l9.164 5.528L82.402 8.853l-28.054 5.75M51.195 49.09l-20.08 10.922 7.447-18.544 12.633 7.623Z"/><path d="M49.518 33.318 82.402 8.853 26.483 34.181l4.632 25.831 7.447-18.544 7.751-5.766"/><path d="M49.518 33.318 82.402 8.853 26.483 34.181l4.632 25.831 20.08-10.921-12.633-7.623 7.751-5.766"/><path d="m46.313 35.702-7.751 5.766 12.633 7.622 9.374 5.655a3.648 3.648 0 0 0 5.299-1.842l16.534-44.05-32.885 24.465"/></g></g><defs><clipPath id="a"><path fill="#fff" transform="translate(14.5)" d="M0 0h69v68.865H0z"/></clipPath></defs></svg>