<svg width="68" height="59" fill="none" xmlns="http://www.w3.org/2000/svg"><path fill-rule="evenodd" clip-rule="evenodd" d="M20.758 22.175c4.172 1.009 8.345 1.652 11.53 4.53 3.37 3.046 5.304 7.084 6.242 11.53 1.267 6 4.654 13.792-.074 17.697-4.797 3.962-11.48-3.245-17.698-3.02C14 53.156 6.804 61.734 1.732 57.26c-4.982-4.396 2.365-12.381 2.39-19.026.025-6.59-6.988-14.306-2.247-18.882 4.76-4.595 12.452 1.268 18.883 2.823Z" fill="#EBEEF3"/><path fill-rule="evenodd" clip-rule="evenodd" d="M48.203 12.228c5.49-.566 11.622-.242 15.493 3.692 3.854 3.917 3.46 9.999 3.382 15.494-.078 5.381.076 11.341-3.82 15.055-3.848 3.667-9.753 2.567-15.056 2.934-5.984.415-13.281 3.764-17.296-.693-4.02-4.462.16-11.364 1.093-17.296.705-4.485.678-9.127 3.608-12.596 3.178-3.763 7.696-6.084 12.596-6.59Z" fill="#F4F7FB"/><g clip-path="url(#a)"><mask id="b" style="mask-type:luminance" maskUnits="userSpaceOnUse" x="5" y="0" width="58" height="59"><path d="M5.364.973H63v57.635H5.364V.973Z" fill="#fff"/></mask><g mask="url(#b)" stroke="#fff" stroke-width="3.23" stroke-miterlimit="10" stroke-linecap="round" stroke-linejoin="round"><path d="M53.84 5.139a3.04 3.04 0 0 0-3.041-3.04H10.03a3.04 3.04 0 0 0-3.04 3.04v4.79h46.85v-4.79Z"/><path d="M36.228 46.334h12.063l-.946-7.722a.362.362 0 0 1 .543-.356l5.951 3.486V9.928H6.99v33.366a3.04 3.04 0 0 0 3.04 3.04h16.338"/><path d="m47.345 38.612 1.742 14.211c.039.319.442.433.642.183l2.006-2.505a.362.362 0 0 1 .585.028l4.463 6.79c.11.167.335.214.502.104l1.963-1.29 1.964-1.29a.362.362 0 0 0 .104-.503l-4.463-6.79a.362.362 0 0 1 .207-.548l3.094-.848c.31-.084.364-.5.088-.662l-12.354-7.236a.362.362 0 0 0-.543.356ZM23.338 24.373h-7.554V16.85h7.554v7.524ZM30.326 16.849h14.739M30.326 23.96h14.739M15.784 31.071h29.281M15.784 38.182h24.322"/></g></g><g clip-path="url(#c)"><mask id="d" style="mask-type:luminance" maskUnits="userSpaceOnUse" x="5" y="0" width="58" height="58"><path d="M5.364.043H63V57.68H5.364V.043Z" fill="#fff"/></mask><g mask="url(#d)" stroke="#D8AA40" stroke-width="2.38" stroke-miterlimit="10" stroke-linecap="round" stroke-linejoin="round"><path d="M53.84 4.21a3.04 3.04 0 0 0-3.041-3.04H10.03a3.04 3.04 0 0 0-3.04 3.04v4.789h46.85v-4.79ZM36.228 45.404h12.063l-.946-7.721a.362.362 0 0 1 .543-.356l5.951 3.486V8.999H6.99v33.365a3.04 3.04 0 0 0 3.04 3.04h16.338"/><path d="m47.345 37.683 1.742 14.211c.039.318.442.433.642.182l2.006-2.504a.362.362 0 0 1 .585.028l4.463 6.79c.11.167.335.214.502.104l1.963-1.29 1.964-1.291a.362.362 0 0 0 .104-.502l-4.463-6.79a.362.362 0 0 1 .207-.549l3.094-.847c.31-.085.364-.5.088-.662l-12.354-7.236a.362.362 0 0 0-.543.356ZM23.338 23.444h-7.554V15.92h7.554v7.524ZM30.326 15.92h14.739M30.326 23.03h14.739M15.784 30.142h29.281M15.784 37.253h24.322"/></g></g><defs><clipPath id="a"><path fill="#fff" transform="translate(5)" d="M0 0h58v59H0z"/></clipPath><clipPath id="c"><path fill="#fff" transform="translate(5)" d="M0 0h58v58H0z"/></clipPath></defs></svg>