<svg width="69" height="60" fill="none" xmlns="http://www.w3.org/2000/svg"><path fill-rule="evenodd" clip-rule="evenodd" d="M37.91 50.589c3.306-4.78 7.363-10.06 5.925-15.692-1.535-6.012-7.228-10.13-13.06-12.252-5.587-2.034-12.43-2.396-17.112 1.27-4.226 3.31-1.529 10.136-3.715 15.038C7.632 44.145-.737 47.16.863 52.615c1.57 5.354 9.423 5.013 14.89 6.132 4.084.836 8.102.815 12.014-.626 4.108-1.512 7.652-3.932 10.143-7.532Z" fill="#EBEEF3"/><path fill-rule="evenodd" clip-rule="evenodd" d="M29.335 27.931c2.433-5.052 9.942-4.1 15.244-6.204 5.994-2.379 11.42-9.299 17.353-6.732 5.928 2.565 5.974 10.796 6.58 17.086.45 4.668-1.278 8.976-3.68 13.026-2.194 3.703-5.139 6.749-9.113 8.56-4.574 2.083-9.867 4.334-14.414 2.158-4.556-2.18-5.18-7.91-7.138-12.474-2.213-5.156-7.26-10.377-4.832-15.42Z" fill="#F4F7FB"/><g clip-path="url(#a)"><mask id="b" style="mask-type:luminance" maskUnits="userSpaceOnUse" x="8" y="0" width="53" height="53"><path d="M8 .981h52.019V53H8V.981Z" fill="#fff"/></mask><g mask="url(#b)" stroke="#fff" stroke-width="3.23" stroke-miterlimit="10"><path d="M34.01 51.476a24.498 24.498 0 0 1-11.949-3.108L9.996 51.004l2.636-12.065A24.499 24.499 0 0 1 9.524 26.99c0-13.532 10.951-24.486 24.485-24.486 13.532 0 24.486 10.951 24.486 24.486 0 13.532-10.951 24.485-24.486 24.485Z"/><path d="m31.06 18.547-4.837-6.743-4.241 4.241c-1.683 1.682-2.173 4.234-1.174 6.393 2.212 4.785 7.258 13.034 17.79 17.793 2.124.96 4.63.423 6.278-1.224l4.275-4.276-6.744-4.836-3.858 2.411a1.907 1.907 0 0 1-1.923-.076l-.309-.197a24.3 24.3 0 0 1-7.395-7.395l-.197-.31c-.371-.58-.4-1.315-.077-1.922l2.411-3.859Z"/></g></g><g clip-path="url(#c)"><mask id="d" style="mask-type:luminance" maskUnits="userSpaceOnUse" x="8" y="0" width="52" height="52"><path d="M8 0h52v52H8V0Z" fill="#fff"/></mask><g mask="url(#d)" stroke="#D8AA40" stroke-width="2.381" stroke-miterlimit="10"><path d="M34 50.477a24.49 24.49 0 0 1-11.944-3.107l-12.06 2.635 2.634-12.061A24.491 24.491 0 0 1 9.523 26C9.523 12.473 20.471 1.523 34 1.523c13.527 0 24.477 10.948 24.477 24.477 0 13.527-10.948 24.477-24.477 24.477Z"/><path d="m31.051 17.56-4.834-6.741-4.24 4.24c-1.682 1.681-2.172 4.232-1.174 6.39 2.212 4.783 7.256 13.03 17.785 17.787 2.122.96 4.628.423 6.275-1.224l4.273-4.274-6.74-4.834-3.858 2.41a1.907 1.907 0 0 1-1.922-.076l-.31-.198a24.291 24.291 0 0 1-7.391-7.392l-.198-.309c-.37-.58-.4-1.315-.076-1.922l2.41-3.857Z"/></g></g><defs><clipPath id="a"><path fill="#fff" transform="translate(8)" d="M0 0h53v53H0z"/></clipPath><clipPath id="c"><path fill="#fff" transform="translate(8)" d="M0 0h52v52H0z"/></clipPath></defs></svg>